<?xml version="1.0" standalone="no"?>
<!DOCTYPE svg PUBLIC "-//W3C//DTD SVG 20010904//EN"
 "http://www.w3.org/TR/2001/REC-SVG-20010904/DTD/svg10.dtd">
<svg version="1.0" xmlns="http://www.w3.org/2000/svg"
 width="600.000000pt" height="400.000000pt" viewBox="0 0 600.000000 400.000000"
 preserveAspectRatio="xMidYMid meet">
<g transform="translate(0.000000,400.000000) scale(0.100000,-0.100000)"
fill="#000000" stroke="none">
<path d="M2850 3029 c-85 -48 -178 -102 -205 -119 -28 -16 -56 -30 -62 -30
-10 0 -12 -277 -4 -400 l3 -35 9 30 c5 17 6 100 4 185 -5 136 -4 159 12 189
10 19 26 36 35 37 10 1 25 10 34 19 9 9 23 14 31 11 8 -3 12 -2 9 3 -3 5 8 14
24 20 17 5 30 15 30 22 0 6 7 8 16 5 8 -3 13 -2 10 2 -7 11 62 44 75 37 5 -3
6 1 3 9 -4 11 0 16 11 16 9 0 31 11 48 24 18 13 42 27 55 31 l22 6 0 -235 c0
-134 4 -236 9 -236 5 0 7 43 4 100 -4 72 -3 100 6 100 6 0 11 9 11 20 0 11 -4
20 -9 20 -5 0 -9 47 -9 105 -1 96 1 105 18 105 10 0 25 -6 32 -14 8 -7 24 -17
36 -20 12 -4 20 -11 17 -16 -3 -4 3 -7 13 -6 9 0 16 -4 15 -11 -2 -7 3 -10 11
-7 8 3 24 -4 35 -15 12 -12 23 -21 26 -21 3 0 18 -6 35 -15 19 -10 28 -21 25
-33 -3 -15 3 -18 26 -17 17 1 36 -6 45 -16 9 -10 21 -16 26 -12 21 12 27 -27
28 -201 1 -192 2 -211 13 -222 4 -4 7 89 7 208 l0 215 -132 79 c-73 43 -167
100 -208 126 -41 27 -77 48 -80 47 -3 0 -75 -41 -160 -90z m465 -119 c3 -6 -1
-7 -9 -4 -18 7 -21 14 -7 14 6 0 13 -4 16 -10z"/>
<path d="M3177 2979 c7 -7 15 -10 18 -7 3 3 -2 9 -12 12 -14 6 -15 5 -6 -5z"/>
<path d="M2260 2696 c0 -2 7 -7 16 -10 8 -3 12 -2 9 4 -6 10 -25 14 -25 6z"/>
<path d="M2061 2590 c-84 -49 -180 -104 -212 -122 l-59 -33 0 -593 c0 -561 1
-593 18 -588 38 12 419 56 622 72 533 41 1411 5 1783 -72 l28 -6 -3 593 -3
593 -85 53 c-46 29 -89 52 -94 50 -5 -2 -16 -14 -25 -28 -15 -24 -15 -24 5 -6
25 21 38 22 30 1 -3 -9 -2 -12 5 -9 5 4 16 1 24 -5 8 -7 15 -9 15 -4 0 4 10
-2 23 -14 13 -12 27 -19 32 -15 4 5 5 0 2 -9 -5 -13 -1 -16 19 -12 l24 4 -3
-114 c-1 -64 1 -108 6 -98 4 9 4 -14 1 -51 -3 -38 -6 -248 -5 -468 0 -219 -2
-405 -5 -412 -4 -10 -33 -9 -147 6 -78 11 -156 19 -174 20 l-31 1 -1 145 c-6
717 -5 1161 4 1164 12 5 62 -24 63 -36 0 -5 4 -12 8 -15 4 -4 4 -1 0 6 -4 6
-3 12 3 12 5 0 11 -4 13 -9 7 -17 90 -63 99 -54 6 6 -35 36 -101 77 l-111 67
-174 -98 c-96 -54 -185 -105 -197 -115 -37 -27 -15 -30 25 -2 20 13 37 21 37
17 0 -4 5 -2 11 4 6 6 18 9 27 6 11 -5 13 -3 7 7 -6 10 -3 12 14 7 18 -4 20
-3 10 9 -9 11 -8 14 9 14 11 0 28 7 36 16 9 8 21 12 27 8 7 -4 9 -3 6 3 -4 6
6 16 23 22 17 5 30 15 30 21 0 7 6 10 12 8 7 -3 18 0 25 6 33 29 41 34 47 29
3 -4 6 -2 6 4 0 5 6 10 13 10 9 0 11 -139 9 -665 -1 -366 -4 -667 -6 -669 -2
-2 -15 1 -30 7 -32 12 -212 23 -583 36 l-192 7 -4 61 -3 61 -2 -65 -2 -65
-143 -1 c-78 0 -177 -3 -219 -6 l-78 -6 0 562 -1 561 -167 100 c-92 55 -171
101 -177 102 -5 2 -79 -38 -164 -87z m167 -606 c-3 -579 -5 -659 -18 -656 -16
4 -175 -13 -270 -28 -30 -5 -71 -11 -91 -14 l-37 -6 -1 567 c-1 633 -8 576 72
609 20 9 37 20 37 24 0 4 15 13 33 20 17 7 46 23 62 35 45 33 96 55 108 48 6
-4 7 -1 2 7 -6 10 -4 12 9 7 9 -4 15 -3 12 2 -3 4 10 17 29 27 19 10 35 23 35
28 0 6 4 6 10 0 7 -7 9 -237 8 -670z m72 615 c0 -6 7 -8 16 -5 8 3 12 2 9 -4
-3 -6 2 -10 13 -10 11 0 31 -9 44 -20 14 -10 28 -17 31 -13 4 3 4 -4 2 -16 -2
-12 0 -19 6 -16 5 4 25 1 44 -6 25 -9 31 -16 22 -22 -8 -6 -4 -7 11 -4 12 3
20 1 16 -4 -3 -5 2 -9 10 -9 18 0 27 -29 25 -80 -1 -19 -1 -257 0 -529 1 -271
0 -496 -3 -498 -3 -3 -42 -7 -88 -8 -84 -4 -166 -12 -203 -21 -16 -4 -17 -3
-5 5 10 7 11 11 3 11 -10 0 -13 142 -12 645 l0 645 29 -15 c17 -9 30 -20 30
-26z"/>
<path d="M1823 1480 c0 -25 2 -35 4 -22 2 12 2 32 0 45 -2 12 -4 2 -4 -23z"/>
<path d="M3010 2050 c0 -299 2 -541 5 -539 7 8 9 1068 2 1076 -4 3 -7 -238 -7
-537z"/>
<path d="M3500 2465 c-8 -9 -8 -15 -2 -15 12 0 26 19 19 26 -2 2 -10 -2 -17
-11z"/>
<path d="M3418 2388 c2 -10 6 -18 7 -18 1 0 5 8 7 18 3 11 0 19 -7 19 -7 0
-10 -8 -7 -19z"/>
<path d="M2582 2290 c0 -19 2 -27 5 -17 2 9 2 25 0 35 -3 9 -5 1 -5 -18z"/>
<path d="M1978 1213 c7 -3 16 -2 19 1 4 3 -2 6 -13 5 -11 0 -14 -3 -6 -6z"/>
</g>
</svg>
